<?xml version="1.0" encoding="utf-8"?>
<!-- Generator: Adobe Illustrator 27.5.0, SVG Export Plug-In . SVG Version: 6.00 Build 0)  -->
<svg version="1.1" id="Layer_3" xmlns="http://www.w3.org/2000/svg" xmlns:xlink="http://www.w3.org/1999/xlink" x="0px" y="0px"
	 viewBox="0 0 450 450" style="enable-background:new 0 0 450 450;" xml:space="preserve">
<rect style="fill:#FFFFFF;" width="450" height="450"/>
<linearGradient id="SVGID_1_" gradientUnits="userSpaceOnUse" x1="255.1807" y1="182.7434" x2="331.0537" y2="182.7434">
	<stop  offset="0.2139" style="stop-color:#F3F4F5"/>
	<stop  offset="0.7933" style="stop-color:#E9EAED"/>
	<stop  offset="1" style="stop-color:#E4E5E9"/>
</linearGradient>
<path style="fill:url(#SVGID_1_);" d="M304.433,205.538c-1.582,0-3.089-0.368-4.243-1.036l-42.674-24.638
	c-1.48-0.852-2.332-2.167-2.335-3.608c-0.003-1.478,0.89-2.847,2.449-3.754l19.675-11.434c1.243-0.722,2.84-1.119,4.495-1.119
	c1.583,0,3.091,0.368,4.245,1.036l42.674,24.638c1.48,0.852,2.332,2.169,2.335,3.609c0.003,1.478-0.89,2.846-2.448,3.752
	l-19.675,11.433C307.686,205.14,306.089,205.538,304.433,205.538z"/>
<linearGradient id="SVGID_00000057834586564397229370000006346923083828447637_" gradientUnits="userSpaceOnUse" x1="318.3089" y1="188.4384" x2="348.8922" y2="188.4384">
	<stop  offset="0" style="stop-color:#E4E5E9"/>
	<stop  offset="0.2067" style="stop-color:#E9EAED"/>
	<stop  offset="0.7861" style="stop-color:#F3F4F5"/>
</linearGradient>
<path style="fill:url(#SVGID_00000057834586564397229370000006346923083828447637_);" d="M346.147,191.184h-25.093
	c-1.516,0-2.745-1.229-2.745-2.745v0c0-1.516,1.229-2.745,2.745-2.745h25.093c1.516,0,2.745,1.229,2.745,2.745v0
	C348.892,189.954,347.663,191.184,346.147,191.184z"/>
<g>
	
		<linearGradient id="SVGID_00000083776703629009112830000015124482694382229944_" gradientUnits="userSpaceOnUse" x1="37.8848" y1="168.7964" x2="64.4629" y2="168.7964">
		<stop  offset="0.2139" style="stop-color:#F3F4F5"/>
		<stop  offset="0.7933" style="stop-color:#E9EAED"/>
		<stop  offset="1" style="stop-color:#E4E5E9"/>
	</linearGradient>
	<polygon style="fill:url(#SVGID_00000083776703629009112830000015124482694382229944_);" points="37.885,168.776 51.138,161.124 
		64.463,168.817 51.209,176.469 	"/>
	
		<linearGradient id="SVGID_00000074413164935040909640000018134862353319060130_" gradientUnits="userSpaceOnUse" x1="12.0366" y1="183.7197" x2="38.6143" y2="183.7197">
		<stop  offset="0.2139" style="stop-color:#F3F4F5"/>
		<stop  offset="0.7933" style="stop-color:#E9EAED"/>
		<stop  offset="1" style="stop-color:#E4E5E9"/>
	</linearGradient>
	<polygon style="fill:url(#SVGID_00000074413164935040909640000018134862353319060130_);" points="12.037,183.699 25.29,176.047 
		38.614,183.74 25.361,191.392 	"/>
	
		<linearGradient id="SVGID_00000005986707514731848620000010262461251508321684_" gradientUnits="userSpaceOnUse" x1="89.6519" y1="168.8371" x2="116.2295" y2="168.8371">
		<stop  offset="0.2139" style="stop-color:#F3F4F5"/>
		<stop  offset="0.7933" style="stop-color:#E9EAED"/>
		<stop  offset="1" style="stop-color:#E4E5E9"/>
	</linearGradient>
	<polygon style="fill:url(#SVGID_00000005986707514731848620000010262461251508321684_);" points="89.652,168.817 102.905,161.165 
		116.229,168.858 102.976,176.51 	"/>
	
		<linearGradient id="SVGID_00000156554606408664908080000014477401415307646142_" gradientUnits="userSpaceOnUse" x1="61.8092" y1="178.6851" x2="102.6242" y2="178.6851" gradientTransform="matrix(-0.866 0.5 1.5 0.2887 -117.6741 87.1001)">
		<stop  offset="0.2139" style="stop-color:#F3F4F5"/>
		<stop  offset="0.7933" style="stop-color:#E9EAED"/>
		<stop  offset="1" style="stop-color:#E4E5E9"/>
	</linearGradient>
	<path style="fill:url(#SVGID_00000156554606408664908080000014477401415307646142_);" d="M83.972,192.061l16.428-9.485
		c2.809-1.622,2.453-4.48-0.79-6.353l-14.27-8.239c-3.243-1.872-8.195-2.078-11.003-0.456l-16.428,9.485
		c-2.809,1.622-2.453,4.48,0.79,6.353l14.27,8.239C76.212,193.477,81.163,193.683,83.972,192.061z"/>
	
		<linearGradient id="SVGID_00000036223372561891898940000007504088907278623888_" gradientUnits="userSpaceOnUse" x1="89.7227" y1="198.7249" x2="116.3003" y2="198.7249">
		<stop  offset="0.2139" style="stop-color:#F3F4F5"/>
		<stop  offset="0.7933" style="stop-color:#E9EAED"/>
		<stop  offset="1" style="stop-color:#E4E5E9"/>
	</linearGradient>
	<polygon style="fill:url(#SVGID_00000036223372561891898940000007504088907278623888_);" points="89.723,198.704 102.976,191.053 
		116.3,198.745 103.047,206.397 	"/>
	
		<linearGradient id="SVGID_00000001637223613540096010000015824386679741264050_" gradientUnits="userSpaceOnUse" x1="37.9556" y1="198.6841" x2="64.5332" y2="198.6841">
		<stop  offset="0.2139" style="stop-color:#F3F4F5"/>
		<stop  offset="0.7933" style="stop-color:#E9EAED"/>
		<stop  offset="1" style="stop-color:#E4E5E9"/>
	</linearGradient>
	<polygon style="fill:url(#SVGID_00000001637223613540096010000015824386679741264050_);" points="37.956,198.664 51.209,191.011 
		64.533,198.704 51.28,206.357 	"/>
	
		<linearGradient id="SVGID_00000065766182666664998390000013071151733909535645_" gradientUnits="userSpaceOnUse" x1="115.5708" y1="183.8012" x2="142.1484" y2="183.8012">
		<stop  offset="0.2139" style="stop-color:#F3F4F5"/>
		<stop  offset="0.7933" style="stop-color:#E9EAED"/>
		<stop  offset="1" style="stop-color:#E4E5E9"/>
	</linearGradient>
	<polygon style="fill:url(#SVGID_00000065766182666664998390000013071151733909535645_);" points="115.571,183.781 128.824,176.129 
		142.148,183.822 128.895,191.474 	"/>
	
		<linearGradient id="SVGID_00000091693679308603427590000017564485555863099810_" gradientUnits="userSpaceOnUse" x1="63.8745" y1="213.6481" x2="90.4521" y2="213.6481">
		<stop  offset="0.2139" style="stop-color:#F3F4F5"/>
		<stop  offset="0.7933" style="stop-color:#E9EAED"/>
		<stop  offset="1" style="stop-color:#E4E5E9"/>
	</linearGradient>
	<polygon style="fill:url(#SVGID_00000091693679308603427590000017564485555863099810_);" points="63.875,213.628 77.128,205.976 
		90.452,213.669 77.199,221.32 	"/>
</g>

</svg>
